<svg width="46" height="50" viewBox="0 0 46 50" fill="none" xmlns="http://www.w3.org/2000/svg">
<path d="M41.6218 26.4014V38.0845C38.1117 42.634 33.0722 45.4636 27.5005 46.0736L37.1761 26.4014H41.6218ZM4.36265 25.0004C4.36265 21.0019 5.45866 17.2586 7.35906 14.0626L22.9341 46.0718C12.5052 44.9136 4.36265 35.9061 4.36265 25.0004ZM9.17224 11.4739C12.359 7.57562 16.8893 4.85258 22.0354 4.0482C22.0477 4.04641 22.061 4.04551 22.0733 4.04372C22.4046 3.99177 22.7385 3.94788 23.0742 3.91294C23.105 3.91026 23.1376 3.90846 23.1693 3.90578C23.8415 3.8386 24.5235 3.80187 25.2133 3.80187C31.1568 3.80187 36.6633 6.29203 40.6077 10.7C40.8703 10.9929 41.1267 11.2947 41.3742 11.6038L25.2186 44.4541L9.17224 11.4739ZM44.6085 11.2929L44.6076 11.2903L44.0966 10.5978C39.5875 4.49786 32.7074 1 25.2124 1C24.9517 1 24.6917 1.01343 24.4318 1.02239C24.2785 1.02777 24.1252 1.02777 23.9728 1.03583C23.6891 1.05105 23.409 1.07793 23.127 1.10122C22.9949 1.11286 22.8609 1.12271 22.7279 1.13525C22.4178 1.16929 22.1103 1.21049 21.8019 1.25618C21.7147 1.26872 21.6266 1.28126 21.5394 1.29559C21.1923 1.35023 20.8469 1.41293 20.5042 1.4837C20.4786 1.48818 20.4531 1.49445 20.4266 1.49893C14.9087 2.64726 9.97046 5.75996 6.45159 10.4384L5.93178 11.129L5.94764 11.1604C3.21906 15.0757 1.60852 19.849 1.60852 25.0004C1.60852 37.9385 11.7325 48.5118 24.3473 48.9776L24.349 48.9812C24.6362 48.9928 24.9235 49 25.2133 49C25.5014 49 25.786 48.9919 26.0706 48.9812L26.0732 48.9749C33.2325 48.7169 39.7654 45.2675 44.0993 39.4013L44.375 39.0277V23.6013H38.5567L44.6085 11.2929Z" fill="white" stroke="white" stroke-width="2"/>
</svg>
